<svg width="26" height="26" viewBox="0 0 26 26" fill="none" xmlns="http://www.w3.org/2000/svg"><path d="M12.634 15.493c1.394 0 2.53-1.16 2.53-2.584 0-.563-.18-1.083-.478-1.507a2.51 2.51 0 0 0-2.05-1.078c-.845 0-1.592.427-2.052 1.078a2.61 2.61 0 0 0-.479 1.506c-.001 1.425 1.134 2.585 2.529 2.585zm5.523-5.745V7.259h-.317l-2.12.008.009 2.489 2.428-.008z" fill="#506B37"/><path d="M12.635 0C5.668 0 0 5.791 0 12.91c0 7.117 5.668 12.909 12.635 12.909 6.966 0 12.634-5.792 12.634-12.91S19.602 0 12.635 0zm7.185 11.403v6.011c0 1.566-1.246 2.838-2.777 2.838H8.226c-1.532 0-2.777-1.272-2.777-2.838V8.406c0-1.565 1.245-2.838 2.777-2.838h8.816c1.532 0 2.778 1.273 2.778 2.838v2.997z" fill="#506B37"/><path d="M16.566 12.909c0 2.213-1.763 4.016-3.93 4.016-2.168 0-3.93-1.803-3.93-4.016 0-.533.103-1.042.289-1.507H6.85v6.011c0 .777.617 1.407 1.377 1.407h8.816c.759 0 1.377-.63 1.377-1.407v-6.01h-2.146c.187.464.292.973.292 1.506z" fill="#506B37"/></svg>