<svg width="178" height="36" viewBox="0 0 178 36" fill="none" xmlns="http://www.w3.org/2000/svg">
<rect width="178" height="36" fill="black" fill-opacity="0"/>
<path d="M19.841 23H23.441L22.271 2.78H17.471L14.681 10.88C13.901 13.25 13.211 15.74 12.671 17.93H12.581C12.071 15.68 11.441 13.28 10.721 10.91L8.08098 2.78H3.22098L1.87098 23H5.32098L5.77098 14.87C5.92098 12.11 6.04098 8.9 6.13098 6.26H6.19098C6.73098 8.78 7.45098 11.54 8.23098 14.12L10.931 22.76H13.781L16.721 14C17.621 11.45 18.461 8.72 19.121 6.26H19.211C19.181 8.99 19.331 12.14 19.451 14.75L19.841 23ZM44.5054 11.03H36.8854V5.81H44.9554V2.78H33.1954V23H45.4054V19.97H36.8854V14.03H44.5054V11.03ZM54.6349 22.94C55.8349 23.09 57.4549 23.21 59.6149 23.21C63.5449 23.21 66.7549 22.28 68.7649 20.45C70.6849 18.71 71.9149 16.01 71.9149 12.41C71.9149 8.96 70.7149 6.56 68.7649 4.97C66.9049 3.41 64.2949 2.63 60.5149 2.63C58.3249 2.63 56.2549 2.78 54.6349 3.05V22.94ZM58.3249 5.72C58.8349 5.6 59.6749 5.51 60.8449 5.51C65.4649 5.51 68.0449 8.06 68.0149 12.53C68.0149 17.66 65.1649 20.3 60.3649 20.27C59.6149 20.27 58.8349 20.27 58.3249 20.18V5.72ZM81.0834 2.78V14.36C81.0834 20.72 84.1134 23.33 88.7934 23.33C93.6534 23.33 96.8634 20.57 96.8634 14.33V2.78H93.1734V14.57C93.1734 18.53 91.5834 20.36 88.9134 20.36C86.4234 20.36 84.7734 18.53 84.7734 14.57V2.78H81.0834ZM106.194 22.04C107.304 22.7 109.524 23.3 111.654 23.3C116.874 23.3 119.334 20.48 119.334 17.24C119.334 14.33 117.624 12.56 114.114 11.24C111.414 10.19 110.244 9.47 110.244 7.91C110.244 6.74 111.264 5.48 113.604 5.48C115.494 5.48 116.904 6.05 117.624 6.44L118.524 3.47C117.474 2.93 115.854 2.45 113.664 2.45C109.284 2.45 106.524 4.97 106.524 8.27C106.524 11.18 108.654 12.95 111.984 14.15C114.564 15.08 115.584 15.98 115.584 17.51C115.584 19.16 114.264 20.27 111.894 20.27C110.004 20.27 108.204 19.67 107.004 18.98L106.194 22.04ZM128.651 2.78V23H132.341V14.09H140.891V23H144.581V2.78H140.891V10.88H132.341V2.78H128.651ZM165.277 17.27L167.107 23H171.067L164.497 2.78H159.787L153.307 23H157.117L158.857 17.27H165.277ZM159.457 14.48L161.017 9.5C161.377 8.3 161.677 6.89 161.977 5.72H162.037C162.337 6.89 162.667 8.27 163.057 9.5L164.647 14.48H159.457Z" fill="#4F4F4F"/>
</svg>
