<svg width="171" height="22" viewBox="0 0 171 22" fill="none" xmlns="http://www.w3.org/2000/svg">
<path d="M18.841 21H22.441L21.271 0.779999H16.471L13.681 8.88C12.901 11.25 12.211 13.74 11.671 15.93H11.581C11.071 13.68 10.441 11.28 9.72098 8.91L7.08098 0.779999H2.22098L0.870977 21H4.32098L4.77098 12.87C4.92098 10.11 5.04098 6.9 5.13098 4.26H5.19098C5.73098 6.78 6.45098 9.54 7.23098 12.12L9.93098 20.76H12.781L15.721 12C16.621 9.45 17.461 6.72 18.121 4.26H18.211C18.181 6.99 18.331 10.14 18.451 12.75L18.841 21ZM43.5054 9.03H35.8854V3.81H43.9554V0.779999H32.1954V21H44.4054V17.97H35.8854V12.03H43.5054V9.03ZM53.6349 20.94C54.8349 21.09 56.4549 21.21 58.6149 21.21C62.5449 21.21 65.7549 20.28 67.7649 18.45C69.6849 16.71 70.9149 14.01 70.9149 10.41C70.9149 6.96 69.7149 4.56 67.7649 2.97C65.9049 1.41 63.2949 0.629999 59.5149 0.629999C57.3249 0.629999 55.2549 0.779999 53.6349 1.05V20.94ZM57.3249 3.72C57.8349 3.6 58.6749 3.51 59.8449 3.51C64.4649 3.51 67.0449 6.06 67.0149 10.53C67.0149 15.66 64.1649 18.3 59.3649 18.27C58.6149 18.27 57.8349 18.27 57.3249 18.18V3.72ZM80.0834 0.779999V12.36C80.0834 18.72 83.1134 21.33 87.7934 21.33C92.6534 21.33 95.8634 18.57 95.8634 12.33V0.779999H92.1734V12.57C92.1734 16.53 90.5834 18.36 87.9134 18.36C85.4234 18.36 83.7734 16.53 83.7734 12.57V0.779999H80.0834ZM105.194 20.04C106.304 20.7 108.524 21.3 110.654 21.3C115.874 21.3 118.334 18.48 118.334 15.24C118.334 12.33 116.624 10.56 113.114 9.24C110.414 8.19 109.244 7.47 109.244 5.91C109.244 4.74 110.264 3.48 112.604 3.48C114.494 3.48 115.904 4.05 116.624 4.44L117.524 1.47C116.474 0.929999 114.854 0.449998 112.664 0.449998C108.284 0.449998 105.524 2.97 105.524 6.27C105.524 9.18 107.654 10.95 110.984 12.15C113.564 13.08 114.584 13.98 114.584 15.51C114.584 17.16 113.264 18.27 110.894 18.27C109.004 18.27 107.204 17.67 106.004 16.98L105.194 20.04ZM127.651 0.779999V21H131.341V12.09H139.891V21H143.581V0.779999H139.891V8.88H131.341V0.779999H127.651ZM164.277 15.27L166.107 21H170.067L163.497 0.779999H158.787L152.307 21H156.117L157.857 15.27H164.277ZM158.457 12.48L160.017 7.5C160.377 6.3 160.677 4.89 160.977 3.72H161.037C161.337 4.89 161.667 6.27 162.057 7.5L163.647 12.48H158.457Z" fill="white"/>
</svg>
