<svg width="171" height="22" viewBox="0 0 171 22" fill="none" xmlns="http://www.w3.org/2000/svg"><path d="M18.841 21h3.6L21.271.78h-4.8l-2.79 8.1c-.78 2.37-1.47 4.86-2.01 7.05h-.09c-.51-2.25-1.14-4.65-1.86-7.02L7.081.78h-4.86L.871 21h3.45l.45-8.13c.15-2.76.27-5.97.36-8.61h.06c.54 2.52 1.26 5.28 2.04 7.86l2.7 8.64h2.85l2.94-8.76c.9-2.55 1.74-5.28 2.4-7.74h.09c-.03 2.73.12 5.88.24 8.49l.39 8.25zM43.505 9.03h-7.62V3.81h8.07V.78h-11.76V21h12.21v-3.03h-8.52v-5.94h7.62v-3zm10.13 11.91c1.2.15 2.82.27 4.98.27 3.93 0 7.14-.93 9.15-2.76 1.92-1.74 3.15-4.44 3.15-8.04 0-3.45-1.2-5.85-3.15-7.44-1.86-1.56-4.47-2.34-8.25-2.34-2.19 0-4.26.15-5.88.42v19.89zm3.69-17.22c.51-.12 1.35-.21 2.52-.21 4.62 0 7.2 2.55 7.17 7.02 0 5.13-2.85 7.77-7.65 7.74-.75 0-1.53 0-2.04-.09V3.72zM80.083.78v11.58c0 6.36 3.03 8.97 7.71 8.97 4.86 0 8.07-2.76 8.07-9V.78h-3.69v11.79c0 3.96-1.59 5.79-4.26 5.79-2.49 0-4.14-1.83-4.14-5.79V.78h-3.69zm25.111 19.26c1.11.66 3.33 1.26 5.46 1.26 5.22 0 7.68-2.82 7.68-6.06 0-2.91-1.71-4.68-5.22-6-2.7-1.05-3.87-1.77-3.87-3.33 0-1.17 1.02-2.43 3.36-2.43 1.89 0 3.3.57 4.02.96l.9-2.97c-1.05-.54-2.67-1.02-4.86-1.02-4.38 0-7.14 2.52-7.14 5.82 0 2.91 2.13 4.68 5.46 5.88 2.58.93 3.6 1.83 3.6 3.36 0 1.65-1.32 2.76-3.69 2.76-1.89 0-3.69-.6-4.89-1.29l-.81 3.06zM127.651.78V21h3.69v-8.91h8.55V21h3.69V.78h-3.69v8.1h-8.55V.78h-3.69zm36.626 14.49l1.83 5.73h3.96L163.497.78h-4.71L152.307 21h3.81l1.74-5.73h6.42zm-5.82-2.79l1.56-4.98c.36-1.2.66-2.61.96-3.78h.06c.3 1.17.63 2.55 1.02 3.78l1.59 4.98h-5.19z" fill="#fff"/></svg>