<svg width="26" height="26" viewBox="0 0 26 26" fill="none" xmlns="http://www.w3.org/2000/svg">
<path d="M12.6346 0C5.6679 0 0 5.79124 0 12.9095C0 20.0273 5.6679 25.819 12.6346 25.819C19.6007 25.819 25.2691 20.0273 25.2691 12.9095C25.2691 5.79124 19.6017 0 12.6346 0ZM15.7767 13.364H13.7211C13.7211 16.7196 13.7211 20.8499 13.7211 20.8499H10.6752C10.6752 20.8499 10.6752 16.7596 10.6752 13.364H9.22732V10.7182H10.6752V9.00692C10.6752 7.78128 11.2452 5.86612 13.7491 5.86612L16.0062 5.87496V8.44324C16.0062 8.44324 14.6346 8.44324 14.368 8.44324C14.1013 8.44324 13.7221 8.57948 13.7221 9.16396V10.7188H16.0428L15.7767 13.364Z" fill="#506B37"/>
</svg>
