<svg width="26" height="26" viewBox="0 0 26 26" fill="none" xmlns="http://www.w3.org/2000/svg">
<path d="M12.6338 15.493C14.0278 15.493 15.1642 14.3339 15.1642 12.9086C15.1642 12.346 14.984 11.8265 14.6858 11.4022C14.2262 10.7511 13.4791 10.3242 12.6353 10.3242C11.791 10.3242 11.0444 10.7506 10.5839 11.4017C10.2846 11.826 10.106 12.3455 10.1055 12.9081C10.1039 14.3334 11.2394 15.493 12.6338 15.493Z" fill="#506B37"/>
<path d="M18.1569 9.74751V7.58119V7.25879L17.8399 7.25983L15.7207 7.26659L15.7288 9.75583L18.1569 9.74751Z" fill="#506B37"/>
<path d="M12.6346 0C5.6679 0 0 5.79124 0 12.9095C0 20.0273 5.6679 25.819 12.6346 25.819C19.6007 25.819 25.2691 20.0273 25.2691 12.9095C25.2691 5.79124 19.6017 0 12.6346 0ZM19.8201 11.4031V17.4143C19.8201 18.98 18.5742 20.2524 17.0429 20.2524H8.22626C6.6944 20.2524 5.44906 18.98 5.44906 17.4143V11.4031V8.4058C5.44906 6.8406 6.6944 5.56816 8.22626 5.56816H17.0424C18.5742 5.56816 19.8201 6.8406 19.8201 8.4058V11.4031Z" fill="#506B37"/>
<path d="M16.566 12.9088C16.566 15.1224 14.8031 16.9247 12.6356 16.9247C10.4681 16.9247 8.70566 15.1224 8.70566 12.9088C8.70566 12.3763 8.80948 11.8672 8.99473 11.4023H6.84961V17.4135C6.84961 18.1904 7.46694 18.8196 8.22676 18.8196H17.0429C17.8017 18.8196 18.42 18.1904 18.42 17.4135V11.4023H16.2739C16.4607 11.8672 16.566 12.3763 16.566 12.9088Z" fill="#506B37"/>
</svg>
